<svg xmlns="http://www.w3.org/2000/svg" width="84" height="84" viewBox="0 0 84 84">
  <g id="Group_5" data-name="Group 5" transform="translate(-7033 1698)">
    <g id="Group_1766" data-name="Group 1766" transform="translate(6655 -2019)">
      <path id="Ellipse_71" data-name="Ellipse 71" d="M42,0A42,42,0,1,1,0,42,42,42,0,0,1,42,0Z" transform="translate(378 321)" fill="#b6ccfb" opacity="0.26"/>
    </g>
    <path id="clock-solid_1_" data-name="clock-solid (1)" d="M22.988,45.975A22.988,22.988,0,1,1,45.975,22.988,22.986,22.986,0,0,1,22.988,45.975ZM20.832,22.988a1.928,1.928,0,0,0,.961,1.715l8.62,5.747a1.978,1.978,0,0,0,2.909-.521,2.08,2.08,0,0,0-.521-2.99l-7.66-5.1V10.775A2.169,2.169,0,0,0,22.907,8.62a2.2,2.2,0,0,0-2.155,2.155Z" transform="translate(7052 -1679)" fill="#1846a7"/>
  </g>
</svg>
