<svg xmlns="http://www.w3.org/2000/svg" width="84" height="84" viewBox="0 0 84 84">
  <g id="Group_3" data-name="Group 3" transform="translate(-7157 1698)">
    <path id="file-pen-solid" d="M0,5.281A5.281,5.281,0,0,1,5.281,0h13.2V10.563A2.638,2.638,0,0,0,21.125,13.2H31.688v11.52l-7.815,7.815A5.266,5.266,0,0,0,22.487,35l-1.246,4.959a4.013,4.013,0,0,0,.116,2.294H5.281A5.284,5.284,0,0,1,0,36.969Zm21.125,5.281V0L31.688,10.563ZM46.55,20.638a3.292,3.292,0,0,1,0,4.671l-2.426,2.426-5.851-5.859L40.7,19.45a3.307,3.307,0,0,1,4.671,0Zm-20.812,13.7L36.4,23.749,42.259,29.6,31.6,40.262a2.653,2.653,0,0,1-1.23.693L25.408,42.2a1.348,1.348,0,0,1-1.254-.347,1.4,1.4,0,0,1-.347-1.329l1.238-4.893a3.312,3.312,0,0,1,.693-1.3Z" transform="translate(7175 -1677)" fill="#1d62f0"/>
    <path id="Ellipse_71" data-name="Ellipse 71" d="M42,0A42,42,0,1,1,0,42,42,42,0,0,1,42,0Z" transform="translate(7157 -1698)" fill="#1d62f0" opacity="0.26"/>
  </g>
</svg>
