<svg xmlns="http://www.w3.org/2000/svg" width="209" height="60.223" viewBox="0 0 209 60.223">
  <g id="Group_3510" data-name="Group 3510" transform="translate(3912 -630.845)">
    <g id="Group_14" data-name="Group 14" transform="translate(-3959 206.346)">
      <g id="Group_9" data-name="Group 9" transform="translate(-224.589 -59)">
        <text id="AwareMe" transform="translate(412.589 525.654)" fill="#fff" font-size="28" font-family="Montserrat-SemiBold, Montserrat" font-weight="600"><tspan x="-67.76" y="0">AwareMe</tspan></text>
      </g>
    </g>
    <path id="Path_1075" data-name="Path 1075" d="M50.819,52.513h0A26.134,26.134,0,0,0,30.112,10.866,26.135,26.135,0,0,0,9.4,52.507,30.7,30.7,0,0,1,2.366,18.582,30.342,30.342,0,0,1,8.82,8.911a30,30,0,0,1,9.571-6.52,29.924,29.924,0,0,1,23.442,0A30,30,0,0,1,51.4,8.911a30.7,30.7,0,0,1,6.289,33.74A30.324,30.324,0,0,1,50.819,52.513Z" transform="translate(-3912 691.069) rotate(-90)" fill="#fff"/>
    <path id="Path_1076" data-name="Path 1076" d="M69.242,59.208a2.986,2.986,0,0,1-.12-3.566l-5.393-5.449a1.733,1.733,0,0,1-1.491-.021,1.779,1.779,0,0,1-.807-2.368,1.744,1.744,0,0,1,2.343-.815,1.781,1.781,0,0,1,.494,2.82l5.285,5.341q.059-.054.122-.105a2.908,2.908,0,0,1,4.12.438,2.981,2.981,0,0,1-.433,4.163,2.909,2.909,0,0,1-4.12-.438Zm-13.68-7.137a2.454,2.454,0,1,1,2.455,2.454A2.454,2.454,0,0,1,55.561,52.071Zm-21.387-.7a3.156,3.156,0,1,1,3.156,3.155A3.156,3.156,0,0,1,34.174,51.37Zm9.817-1.227a2.279,2.279,0,1,1,2.279,2.279A2.279,2.279,0,0,1,43.992,50.143ZM32.5,44.919a6.005,6.005,0,0,1,.291-8.425,5.854,5.854,0,0,1,6.487-1.059l9.676-18.388a3.6,3.6,0,0,1-.25-5.447,3.514,3.514,0,0,1,5,.176,3.6,3.6,0,0,1-.175,5.056,3.535,3.535,0,0,1-.909.622l3.3,7.5a2.514,2.514,0,1,1-1.949,2.675,2.519,2.519,0,0,1,1.336-2.452l-3.3-7.5a3.518,3.518,0,0,1-2.506-.277L39.857,35.743a5.917,5.917,0,0,1,1.276,1.046,6.005,6.005,0,0,1-.291,8.425,5.855,5.855,0,0,1-8.338-.294Zm17.1-1.088a2.98,2.98,0,1,1,2.98,2.981A2.98,2.98,0,0,1,49.6,43.832Zm9.817-.35a2.63,2.63,0,1,1,2.629,2.629A2.63,2.63,0,0,1,59.418,43.482Zm8.4-5.453A2.424,2.424,0,0,1,68.938,35.5L62,23.36a3.967,3.967,0,0,1-5.715-2.817,3.982,3.982,0,1,1,6.094,2.595l6.952,12.168a2.381,2.381,0,0,1,3.174,1.8,2.413,2.413,0,0,1-1.888,2.83,2.38,2.38,0,0,1-2.8-1.909ZM51.7,35.768a2.279,2.279,0,1,1,2.279,2.279A2.28,2.28,0,0,1,51.7,35.768Zm7.012-2.279a3.155,3.155,0,1,1,3.155,3.156A3.155,3.155,0,0,1,58.717,33.489ZM43.992,30.333A4.207,4.207,0,1,1,48.2,34.541,4.207,4.207,0,0,1,43.992,30.333Zm-9.817-.175a2.279,2.279,0,1,1,2.279,2.279A2.279,2.279,0,0,1,34.174,30.158Zm-2.8-8.765A2.63,2.63,0,1,1,34,24.023,2.63,2.63,0,0,1,31.37,21.393Zm8.765-4.032a3.155,3.155,0,1,1,3.155,3.155A3.155,3.155,0,0,1,40.135,17.361Z" transform="translate(-3923.736 626.807)" fill="#fff"/>
  </g>
</svg>
