<svg xmlns="http://www.w3.org/2000/svg" width="84" height="84" viewBox="0 0 84 84">
  <g id="Group_1887" data-name="Group 1887" transform="translate(-1272 -155)">
    <g id="Group_1766" data-name="Group 1766" transform="translate(894 -166)">
      <circle id="Ellipse_71" data-name="Ellipse 71" cx="42" cy="42" r="42" transform="translate(378 321)" fill="#fff6f3"/>
      <g id="noun_Car_2293358" transform="translate(65.833 250)">
        <g id="Group_1479" data-name="Group 1479" transform="translate(333 95)">
          <path id="Path_665" data-name="Path 665" d="M8.048,12.823H36.285L33.693,6.138C33.148,4.5,32.329,3,30.692,3H13.641C11.868,3,11.186,4.5,10.5,6.138Zm32.193.136a4.985,4.985,0,0,1,4.092,4.911V30.42H0V17.87a4.985,4.985,0,0,1,4.092-4.911l3.274-9C8.185,1.91,9.14,0,11.322,0H32.875c2.183,0,3.274,1.91,4.092,3.956Zm-3.956,5.866a3.683,3.683,0,1,0,3.683,3.683A3.668,3.668,0,0,0,36.285,18.825Zm-28.373,0a3.686,3.686,0,1,1-3.547,3.683A3.668,3.668,0,0,1,7.912,18.825Z" transform="translate(0 0)" fill="#f13903" fill-rule="evenodd"/>
          <path id="Path_666" data-name="Path 666" d="M25,213h8.457v3.956a3.959,3.959,0,0,1-3.956,3.956h-.546A3.959,3.959,0,0,1,25,216.956Z" transform="translate(-21.59 -183.944)" fill="#f13903" fill-rule="evenodd"/>
          <path id="Path_667" data-name="Path 667" d="M245.594,213H237v3.956a3.959,3.959,0,0,0,3.956,3.956h.682a3.959,3.959,0,0,0,3.956-3.956Z" transform="translate(-204.671 -183.944)" fill="#f13903" fill-rule="evenodd"/>
        </g>
      </g>
    </g>
  </g>
</svg>
