<svg xmlns="http://www.w3.org/2000/svg" width="84" height="84" viewBox="0 0 84 84">
  <g id="Group_4" data-name="Group 4" transform="translate(-6931 1698)">
    <g id="Group_1766" data-name="Group 1766" transform="translate(6553 -2019)">
      <path id="Ellipse_71" data-name="Ellipse 71" d="M42,0A42,42,0,1,1,0,42,42,42,0,0,1,42,0Z" transform="translate(378 321)" fill="#1d62f0" opacity="0.26"/>
    </g>
    <path id="file-lines-solid" d="M21.408,0V10.7h10.7ZM18.732,10.7V0H4.014A4.014,4.014,0,0,0,0,4.014V38.8a4.015,4.015,0,0,0,4.014,4.014H28.1A4.014,4.014,0,0,0,32.112,38.8V13.38H21.484A2.69,2.69,0,0,1,18.732,10.7Zm4.014,24.084H9.366a1.338,1.338,0,0,1,0-2.676h13.38a1.338,1.338,0,1,1,0,2.676Zm0-5.352H9.366a1.338,1.338,0,1,1,0-2.676h13.38a1.338,1.338,0,0,1,0,2.676Zm1.338-6.69a1.342,1.342,0,0,1-1.338,1.338H9.366a1.338,1.338,0,1,1,0-2.676h13.38A1.342,1.342,0,0,1,24.084,22.746Z" transform="translate(6957 -1677)" fill="#1d62f0"/>
  </g>
</svg>
